<?xml version="1.0" encoding="utf-8"?>
<!-- Generator: Adobe Illustrator 21.0.1, SVG Export Plug-In . SVG Version: 6.00 Build 0)  -->
<svg version="1.1" id="Layer_1" xmlns="http://www.w3.org/2000/svg" xmlns:xlink="http://www.w3.org/1999/xlink" x="0px" y="0px"
	 viewBox="0 0 102.5 77" style="enable-background:new 0 0 102.5 77;" xml:space="preserve">
<style type="text/css">
	.st0{fill:none;}
	.st1{fill:#2B2B2B;}
</style>
<line class="st0" x1="181.1" y1="-8110.2" x2="181.1" y2="8272.8"/>
<path class="st0" d="M80.7,19.1c-8.4,0-14.5,6.3-14.5,15.2c0,8.7,6.1,15.1,14.5,15.1c8.3,0,14.4-6.4,14.4-15.1
	C95.1,25.4,89,19.1,80.7,19.1z"/>
<path class="st1" d="M8.5,63.5c0,3.7-2.5,6.8-8.5,6.8V77c13.8,0,15.7-8.8,15.7-13.5V16.3l-7.2,2.3V63.5z"/>
<path class="st1" d="M81.2,12.5c-6.5,0-12.6,4.2-15,9.2V0L59,2.3v52.2h7.2v-7.6c2.5,5,9.1,9.1,15.6,9.1c13.1,0,20.7-9.3,20.7-21.2
	C102.5,22.8,94.8,12.5,81.2,12.5z M80.7,49.4c-8.4,0-14.5-6.4-14.5-15.1c0-8.9,6.1-15.2,14.5-15.2c8.3,0,14.4,6.3,14.4,15.2
	C95.1,43,89,49.4,80.7,49.4z"/>
<path class="st1" d="M49.9,15.1l-1.2,0.4v23.7c0,6.2-5.8,10.7-11.7,10.7c-7.5,0-11.8-4.7-11.8-10.7V13.2L18,15.6v24.5
	c0,8.5,6.5,16,16,16c6.8,0,12.4-3.9,14.7-7.9v6.3h7.2V13.2L49.9,15.1z"/>
</svg>
